<svg width="100" height="100" viewBox="0 0 100 100" xmlns="http://www.w3.org/2000/svg"><title>icon_code_gray</title><defs><linearGradient x1="20.418%" y1="10.734%" x2="75.715%" y2="89.102%" id="a"><stop stop-color="#EDEDED" offset="0%"/><stop stop-color="#C6D2DD" offset="100%"/></linearGradient><linearGradient x1="10.415%" y1="0%" x2="89.585%" y2="100%" id="b"><stop stop-color="#080431" offset="0%"/><stop stop-color="#090532" offset=".568%"/><stop stop-color="#4696DF" offset="100%"/></linearGradient></defs><g fill="none"><path d="M50.018 99.857C22.472 99.857.144 77.528.144 49.984.144 22.438 22.472.11 50.018.11c27.544 0 49.874 22.328 49.874 49.873 0 27.544-22.33 49.874-49.874 49.874" fill="url(#a)"/><path d="M20.116 69.442L50.525 99.85c27.312-.273 49.368-22.493 49.368-49.867 0-.578-.015-1.155-.034-1.73L80.471 28.867 20.116 69.442" fill="url(#b)" opacity=".2"/><path d="M80.958 30.614a3.4 3.4 0 0 0-3.4-3.4H22.476a3.4 3.4 0 0 0-3.4 3.4v36.38s1.522.07 3.4.07h55.082a3.4 3.4 0 0 0 3.4-3.4v-33.05" fill="#182F35"/><path d="M80.958 30.614a3.4 3.4 0 0 0-3.4-3.4H22.476a3.4 3.4 0 0 0-3.4 3.4v36.38s1.522.07 3.4.07h55.082c1.88 0 3.4-.07 3.4-.07v-36.38" fill="#384042"/><path d="M19.075 65.704v1.29s1.523.07 3.4.07h55.083c1.88 0 3.4-.07 3.4-.07v-36.38a3.36 3.36 0 0 0-.488-1.747L19.076 65.703" fill="#273538"/><path fill="#5F7690" d="M22.476 63.664h55.082v-33.05H22.476z"/><path fill="#000" opacity=".1" d="M22.476 63.664h55.082v-33.05l-55.082 33.05"/><path fill="#AAB0B3" d="M61.934 78.973H38.101l3.317-11.365h17.2l3.316 11.365"/><path d="M19.075 66.994a3.4 3.4 0 0 0 3.4 3.4h55.083a3.4 3.4 0 0 0 3.4-3.4H19.075zM35.814 81.8h28.408v-3.65H35.814v3.65z" fill="#F2F5F5"/><path d="M43.249 54.049a1.21 1.21 0 0 1-.86-.357l-6.033-6.032a1.217 1.217 0 0 1 0-1.72l6.032-6.033a1.216 1.216 0 0 1 1.72 1.72l-5.172 5.172 5.173 5.172a1.217 1.217 0 0 1-.86 2.078m13.377 0a1.215 1.215 0 0 1-.86-2.077l5.172-5.173-5.173-5.173a1.216 1.216 0 0 1 1.72-1.719l6.033 6.032a1.216 1.216 0 0 1 0 1.721l-6.032 6.032a1.21 1.21 0 0 1-.86.357M46.502 56.8a1.216 1.216 0 0 1-1.132-1.66l6.868-17.567a1.216 1.216 0 0 1 2.266.886l-6.869 17.567a1.217 1.217 0 0 1-1.133.774" fill="#FFF"/></g></svg>