<svg width="100" height="100" viewBox="0 0 100 100" xmlns="http://www.w3.org/2000/svg"><title>icon_search_gray</title><defs><linearGradient x1="20.418%" y1="10.734%" x2="75.715%" y2="89.102%" id="a"><stop stop-color="#EDEDED" offset="0%"/><stop stop-color="#C6D2DD" offset="100%"/></linearGradient><linearGradient x1="-37.519%" y1="-24.036%" y2="94.693%" id="b"><stop stop-color="#080431" offset="0%"/><stop stop-color="#4696DF" offset="100%"/></linearGradient></defs><g fill="none"><path d="M49.874 99.747C22.328 99.747 0 77.42 0 49.874 0 22.33 22.328 0 49.874 0c27.544 0 49.873 22.33 49.873 49.874 0 27.545-22.33 49.873-49.873 49.873" fill="url(#a)"/><path d="M99.746 50.266L54.4 26.4l-24 24.8 18.723 48.542c.25.003.5.005.75.005 27.413 0 49.662-22.116 49.873-49.48z" fill="url(#b)" opacity=".2"/><g transform="matrix(-1 0 0 1 80 21)"><path fill="#989898" d="M22.08 36.512l-3.376-3.376 4.718-4.717 3.376 3.376z"/><circle fill="#777885" cx="36.894" cy="18.322" r="17.773"/><circle fill="#67697D" cx="36.8" cy="18.4" r="16"/><circle fill="#F3FEFF" cx="36.894" cy="18.322" r="13.483"/><path d="M.808 46.608a1.16 1.16 0 0 0 0 1.638l6.16 6.16c.453.45 1.185.45 1.638 0L24.884 38.13c.45-.454.45-1.185 0-1.639l-6.16-6.16a1.16 1.16 0 0 0-1.638 0L.808 46.608z" fill="#4B4D5E"/></g></g></svg>