<svg width="100" height="100" viewBox="0 0 100 100" xmlns="http://www.w3.org/2000/svg"><title>icon_celebration_gray</title><defs><linearGradient x1="20.418%" y1="10.734%" x2="75.715%" y2="89.102%" id="a"><stop stop-color="#EDEDED" offset="0%"/><stop stop-color="#C6D2DD" offset="100%"/></linearGradient><linearGradient x1="1.761%" y1="-36.919%" x2="73.233%" y2="124.189%" id="b"><stop stop-color="#080431" offset="0%"/><stop stop-color="#4696DF" offset="100%"/></linearGradient></defs><g fill="none"><path d="M49.84 99.76C22.32 99.76 0 77.44 0 49.84 0 22.32 22.32 0 49.84 0c27.52 0 49.84 22.32 49.84 49.84.08 27.6-22.24 49.92-49.84 49.92" fill="url(#a)"/><path d="M87.6 82.48L52.8 50.4 25.6 75.2l3.28 19.92c6.4 2.96 13.52 4.64 21.04 4.64 15.04 0 28.56-6.72 37.68-17.28z" fill="url(#b)" opacity=".2"/><path fill="#3861C4" d="M25.52 76L24 74.48 42 39.2 60.8 58 25.52 76"/><path d="M55.76 52.96L42 39.2 27.6 67.52c8.32-.24 19.04-5.44 28.16-14.56z" fill="#3861C4"/><path d="M38.8 45.52l-1.6 3.12 19.92 11.28L60.88 58 38.8 45.52zM32.96 56.8l14.24 8.08 3.76-1.92-16.4-9.28-1.6 3.12zm-8.32 16.48l2.96 1.68 3.76-1.92-5.12-2.88-1.6 3.12zm4.16-8.24l8.56 4.88L41.12 68 30.4 61.92l-1.6 3.12z" fill="#D0D4D4"/><path d="M36.8 65.6l-6.4-3.68-1.6 3.12 3.36 1.92c1.6-.32 3.12-.8 4.64-1.36m2-20.08l-1.6 3.12 14.32 8.16c.96-.8 1.84-1.6 2.8-2.48l-15.52-8.8m-4.24 8.16l-1.6 3.12 10.16 5.76c1.12-.64 2.32-1.36 3.36-2.08l-11.92-6.8" fill="#FFF"/><path d="M54.72 45.28l11.2-13.52 2.32 2.32-13.52 11.2m-6.16-4.48l4.88-12.64 2.24 1.12-7.12 11.52M59.2 51.36l12.64-4.88-1.12-2.24-11.52 7.12" fill="#3861C4"/><path fill="#FFF" d="M73.84 26.24l-.8 2.24 1.44 1.92h-2.4l-1.36 2-.72-2.32-2.32-.72 2-1.36-.08-2.4 1.92 1.44 2.32-.8"/><path fill="#539FC0" d="M61.44 28.72l-.48 1.44.88 1.28-1.52-.08-.88 1.28-.4-1.44-1.44-.48 1.2-.88v-1.52l1.2.88 1.44-.48"/><path fill="#FFF" d="M46.72 31.84l-.56 1.68 1.04 1.44h-1.76L44.4 36.4l-.56-1.76-1.68-.48 1.44-1.04v-1.76l1.44 1.04 1.68-.56"/><path fill="#539FC0" d="M58.08 17.6l-.72 2.08 1.28 1.76H56.4l-1.28 1.84-.64-2.16-2.16-.64 1.84-1.28v-2.24l1.76 1.36 2.16-.72"/><path d="M71.2 38.56l-1.44.48-1.2-.88v1.52l-1.2.88 1.44.48.48 1.44.88-1.2h1.52L70.72 40l.48-1.44m-3.04 14.72l-1.68.56-1.44-1.04v1.76L63.6 55.6l1.68.56.56 1.68 1.04-1.44h1.76l-1.04-1.44.56-1.68" fill="#FFF"/><path d="M82.4 41.92l-2.08.72-1.76-1.36v2.24l-1.84 1.28 2.16.64.64 2.16 1.28-1.84h2.24L81.68 44l.72-2.08M62.48 18.64l3.12-.88-.88 3.12-2.24-2.24" fill="#539FC0"/><path d="M51.44 42.08l1.28-2.24L54 42.08h-2.56m-5.2-16.32l-.64-2.48 2.48.64-1.84 1.84" fill="#FFF"/><path d="M73.92 17.2l2.24 1.28-2.24 1.28V17.2m7.44 20.32l.88-3.12-3.2.8 2.32 2.32M57.92 48.56l2.24-1.28L57.92 46v2.56m16.32 5.2l2.48.64-.64-2.48-1.84 1.84m8.56-27.68l-1.28-2.24-1.28 2.24h2.56" fill="#539FC0"/></g></svg>